<svg xmlns="http://www.w3.org/2000/svg" xmlns:xlink="http://www.w3.org/1999/xlink" version="1.2" baseProfile="tiny" x="0px" y="0px" viewBox="0 0 56.693 70.86625" xml:space="preserve"><path d="M28.347,8.138c-11.144,0-20.209,9.064-20.209,20.209c0,11.144,9.065,20.209,20.209,20.209  c11.143,0,20.209-9.065,20.209-20.209C48.556,17.203,39.49,8.138,28.347,8.138z M28.347,46.326c-9.914,0-17.979-8.065-17.979-17.979  c0-9.914,8.065-17.979,17.979-17.979s17.979,8.065,17.979,17.979C46.326,38.26,38.26,46.326,28.347,46.326z M20.523,27.65  l-1.663,1.663c-0.216,0.217-0.5,0.324-0.783,0.324s-0.567-0.107-0.783-0.324c-0.433-0.433-0.433-1.134,0-1.566l1.663-1.663  l-1.663-1.661c-0.433-0.433-0.433-1.134,0-1.567c0.433-0.432,1.135-0.432,1.567,0l1.663,1.662l1.661-1.661  c0.433-0.433,1.134-0.433,1.566,0s0.433,1.134,0,1.566l-1.661,1.661l1.663,1.662c0.433,0.433,0.433,1.134,0,1.567  c-0.216,0.217-0.5,0.324-0.784,0.324c-0.283,0-0.567-0.107-0.783-0.324L20.523,27.65z M39.399,27.746  c0.433,0.432,0.433,1.134,0,1.566c-0.216,0.217-0.5,0.324-0.783,0.324s-0.567-0.107-0.783-0.324l-1.662-1.662l-1.662,1.663  c-0.216,0.217-0.5,0.324-0.783,0.324s-0.567-0.107-0.783-0.324c-0.433-0.433-0.433-1.134,0-1.566l1.662-1.663l-1.662-1.662  c-0.433-0.432-0.433-1.134,0-1.566c0.432-0.433,1.135-0.433,1.566,0l1.662,1.662l1.661-1.662c0.432-0.433,1.135-0.433,1.566,0  c0.433,0.433,0.433,1.134,0,1.566l-1.661,1.662L39.399,27.746z M35.239,33.876l-14.471,1.726l-0.379,0.045  c-0.148,0.018-0.286,0.066-0.41,0.136c-0.041,0.021-0.069,0.057-0.106,0.083c-0.077,0.056-0.153,0.111-0.213,0.185  c-0.034,0.04-0.053,0.088-0.081,0.132c-0.046,0.075-0.091,0.147-0.119,0.232c-0.018,0.054-0.021,0.11-0.031,0.167  c-0.011,0.062-0.035,0.121-0.035,0.187v2.125c0,2.642,2.024,4.023,4.023,4.023s4.023-1.382,4.023-4.023V37.08l8.066-0.962  c0.619-0.074,1.061-0.636,0.987-1.255C36.42,34.245,35.875,33.805,35.239,33.876z M25.184,38.892c0,1.304-0.952,1.766-1.767,1.766  s-1.767-0.462-1.767-1.766V37.77l1.266-0.151v0.898c0,0.276,0.224,0.5,0.5,0.5s0.5-0.224,0.5-0.5V37.5l1.267-0.15V38.892z"/></svg>
