<svg xmlns="http://www.w3.org/2000/svg" xmlns:xlink="http://www.w3.org/1999/xlink" version="1.1" x="0px" y="0px" viewBox="0 0 3968.5 4960.625" enable-background="new 0 0 3968.5 3968.5" xml:space="preserve"><g><path d="M2830.5,841c95.6,123.1,153.8,269.6,168.8,425.2l286.5-286.5c10.4-10.4,26.2-13,39.4-6.6c13.4,6.5,27.5,11.5,41.9,14.9   c14.4,3.4,29.2,5.1,43.9,5.1c51.7,0,100.7-20.5,138-57.8c37.1-37.1,57.5-86.3,57.6-138.6c0.1-52.3-20.2-101.5-57.2-138.5   c-36.9-36.8-86-57.1-138.1-57.1c-2.7,0-5.5,0.1-8.3,0.2c-9.6,0.4-18.9-3.2-25.7-10c-6.8-6.8-10.4-16.1-10-25.7   c2.3-55.5-18.1-107.6-57.2-146.8c-36.9-36.9-85.8-57.2-137.8-57.2c-52.4,0-101.7,20.5-138.9,57.7c-29.5,29.5-48.6,66.5-55.2,106.8   c-6.5,39.9-0.5,80.3,17.4,117c6.5,13.2,3.8,29-6.6,39.4L2830.5,841z"/><path d="M3549.2,3033.1c-29.5-29.5-66.5-48.6-106.8-55.1c-39.8-6.5-80.3-0.4-117,17.6c-13.2,6.5-29,3.8-39.4-6.6l-415.2-415.2   l-18.2-18.2l-170.3-170.3c-32.4,25.2-66.8,47.9-102.8,68.1v384.2c0,12.3-0.9,24.4-2.7,36.2l85.6,85.6c0-0.1,0-0.1,0-0.1   l326.8,326.8c10.4,10.4,13,26.2,6.6,39.4c-13.1,26.7-20,56.4-20,85.9c0,51.7,20.5,100.7,57.8,138c37,37.1,86.2,57.5,138.4,57.6   c52.3,0.1,101.5-20.2,138.5-57.2c36.9-36.9,57.2-86,57.2-138.3c0-2.7,0-5.5-0.2-8.3c0-0.5,0-0.9,0-1.4c0-9.1,3.6-17.9,10-24.3   c6.8-6.8,16.1-10.4,25.7-10c54.7,2.3,108.1-18.6,146.5-57.2c36.9-36.9,57.2-85.9,57.2-137.9   C3606.9,3119.6,3586.4,3070.3,3549.2,3033.1z"/><path d="M2801.7,2119.3c72.4-116.3,110.7-250.6,110.7-388.4V1347c0-196.6-76.6-381.5-215.6-520.5c-139-139-323.9-215.6-520.5-215.6   h-383.9c-196.7,0-381.5,76.6-520.5,215.6c-139,139-215.6,323.9-215.6,520.5v383.9c0,137.8,38.3,272,110.7,388.4   c70.5,113.2,170.2,205.3,288.6,266.3c15.1,7.8,24.6,23.4,24.6,40.4v173.9h163v-44.7c0-25.1,20.4-45.4,45.4-45.4   s45.4,20.4,45.4,45.4v44.7h106.3v-44.7c0-25.1,20.4-45.4,45.4-45.4c25.1,0,45.4,20.4,45.4,45.4v44.7h106.3v-44.7   c0-25.1,20.3-45.4,45.4-45.4c25.1,0,45.4,20.4,45.4,45.4v44.7h106.3v-44.7c0-25.1,20.4-45.4,45.4-45.4s45.4,20.4,45.4,45.4v44.7   h163V2426c0-17,9.5-32.6,24.6-40.4C2631.4,2324.6,2731.2,2232.5,2801.7,2119.3z M1566.4,1978.7c-167.3,0-303.5-136.1-303.5-303.5   c0-167.3,136.1-303.4,303.5-303.4c167.3,0,303.4,136.1,303.4,303.4C1869.8,1842.6,1733.7,1978.7,1566.4,1978.7z M2108.6,2224.1   c-25.1,0-45.4-20.3-45.4-45.4c0-43.5-35.4-78.9-78.9-78.9c-43.5,0-78.9,35.4-78.9,78.9c0,25.1-20.4,45.4-45.4,45.4   s-45.4-20.3-45.4-45.4c0-93.6,76.2-169.8,169.8-169.8c93.6,0,169.8,76.2,169.8,169.8C2154,2203.8,2133.7,2224.1,2108.6,2224.1z    M2402.1,1978.7c-167.3,0-303.4-136.1-303.4-303.5c0-167.3,136.1-303.4,303.4-303.4c167.3,0,303.5,136.1,303.5,303.4   C2705.6,1842.6,2569.5,1978.7,2402.1,1978.7z"/><path d="M2325.4,2735.5c0,25.1-20.4,45.4-45.4,45.4s-45.4-20.4-45.4-45.4v-44.7h-106.3v44.7c0,25.1-20.4,45.4-45.4,45.4   c-25.1,0-45.4-20.4-45.4-45.4v-44.7h-106.3v44.7c0,25.1-20.3,45.4-45.4,45.4c-25.1,0-45.4-20.4-45.4-45.4v-44.7h-106.3v44.7   c0,25.1-20.4,45.4-45.4,45.4s-45.4-20.4-45.4-45.4v-44.7h-163v146.7c0,83.2,67.7,150.9,150.9,150.9h706.6   c83.2,0,150.9-67.7,150.9-150.9v-146.7h-163V2735.5z"/><path d="M1389.2,2453.2c-36-20.1-70.4-42.9-102.8-68l-160,160c0,0,0,0,0,0l-5.2,5.2c0,0,0,0,0.1,0L682.7,2989   c-10.4,10.4-26.2,13-39.4,6.6c-26.7-13.1-56.4-20-85.8-20c-51.7,0-100.7,20.5-138,57.8c-37.1,37-57.5,86.2-57.6,138.5   c-0.1,52.3,20.2,101.5,57.2,138.5c36.9,36.9,86,57.2,138.3,57.2c2.8,0,5.5,0,8.3-0.1c0.5,0,1,0,1.4,0c9.1,0,17.8,3.6,24.3,10   c6.8,6.8,10.4,16.1,10,25.7c-2.2,54.7,18.6,108.1,57.2,146.5c36.9,36.9,85.9,57.2,137.9,57.2c52.4,0,101.7-20.5,138.9-57.7   c29.5-29.5,48.6-66.4,55.2-106.8c6.5-39.8,0.4-80.3-17.6-117c-6.5-13.2-3.8-29,6.6-39.4l333.8-333.8l78.5-78.5   c-1.8-11.8-2.7-23.9-2.7-36.3V2453.2z"/><path d="M526.2,990.5c39.8,6.5,80.3,0.5,117-17.5c13.2-6.5,29-3.8,39.4,6.6l286.6,286.6c15-155.7,73.2-302.1,168.8-425.2   L979.7,682.6c-10.4-10.4-13-26.2-6.5-39.4c13.1-26.7,20-56.4,20-85.8v0c0-51.7-20.5-100.7-57.8-138   c-37.1-37.1-86.3-57.5-138.6-57.6c-52.3-0.1-101.5,20.2-138.5,57.2c-36.8,36.9-57,86-57,138.1c0,2.7,0.1,5.5,0.2,8.3   c0.4,9.7-3.2,19-10,25.7c-6.8,6.8-16.1,10.4-25.7,10c-55.5-2.3-107.6,18-146.8,57.2c-36.9,36.9-57.1,85.8-57.1,137.8   c0,52.4,20.5,101.7,57.7,138.9C448.9,964.8,485.8,983.8,526.2,990.5z"/></g></svg>
